<svg width="19" height="19" viewBox="0 0 19 19" fill="none" xmlns="http://www.w3.org/2000/svg">
<path d="M2.30989 10.1446C4.1602 12.2551 6.0152 14.3783 7.87488 16.514C8.04145 16.7049 8.14645 16.863 8.18989 16.9882C8.2552 17.1749 8.26488 17.3673 8.21895 17.5653C8.17707 17.746 8.09457 17.8992 7.97145 18.0248C7.72457 18.2771 7.4316 18.2992 7.09254 18.091C7.05004 18.0646 6.93551 17.9437 6.74895 17.7283C4.68801 15.3496 2.62489 12.9737 0.559573 10.6006C0.389885 10.406 0.25801 10.1989 0.163948 9.97936C0.0658226 9.75001 0.0125412 9.50331 0.00410368 9.23926C-0.00964632 8.81226 0.0973852 8.41977 0.325198 8.06179C0.383948 7.96899 0.478166 7.85017 0.607854 7.70532C0.780666 7.51143 0.868479 7.41279 0.871291 7.4094C2.88629 5.08726 4.90348 2.76795 6.92285 0.451478C7.03629 0.321339 7.15426 0.230431 7.27676 0.178752C7.40145 0.125942 7.53567 0.119152 7.67942 0.158382C7.90817 0.220246 8.07395 0.381505 8.17676 0.64216C8.26582 0.868489 8.27645 1.09595 8.20863 1.32454C8.17051 1.4528 8.08348 1.59972 7.94754 1.76532C7.81973 1.92111 7.68942 2.07388 7.5566 2.22363C7.31098 2.50126 7.17864 2.65102 7.15957 2.6729C5.54613 4.53558 3.93238 6.39054 2.31832 8.23776C2.2952 8.26416 2.29957 8.27737 2.33145 8.27737C7.21488 8.27737 12.0983 8.27737 16.9818 8.27737C17.2361 8.27737 17.4058 8.29396 17.4908 8.32716C17.6677 8.39619 17.8052 8.53632 17.9033 8.74756C18.0343 9.0301 18.0343 9.32018 17.9033 9.6178C17.8021 9.8479 17.6513 9.9937 17.451 10.0552C17.3794 10.0771 17.1975 10.088 16.9054 10.088C12.055 10.088 7.19598 10.088 2.32817 10.088C2.28285 10.088 2.27676 10.1069 2.30989 10.1446Z" fill="black" fill-opacity="0.5"/>
</svg>
