<svg width="57" height="63" viewBox="0 0 57 63" fill="none" xmlns="http://www.w3.org/2000/svg">
<path d="M27.016 40.4936C24.9819 38.8232 22.766 38.4595 20.3682 39.4025" stroke="#834FF6" stroke-width="2"/>
<path d="M27.6426 0C28.828 0 30.0067 0 31.1787 0C38.197 0.740898 45.0268 2.27658 51.6679 4.60704C54.8066 5.71165 56.5713 7.69187 56.962 10.5477C57.0697 11.3559 56.9485 13.7605 56.5983 17.7613C55.0222 35.3004 46.879 49.721 32.1688 61.0231C30 62.7069 27.7773 62.781 25.5007 61.2453C9.94187 50.7785 1.44848 34.4114 0.0205719 12.144C-0.181491 9.05916 1.10498 6.82973 3.87999 5.4557C10.4672 2.19575 18.3881 0.377185 27.6426 0ZM50.1726 7.88046C34.7754 1.75121 19.614 2.17555 4.68823 9.15346C4.12245 9.43635 3.75875 9.98192 3.73854 10.6083C3.05153 30.6799 10.7771 46.5553 26.9152 58.2346C27.7436 58.8408 28.8752 58.8408 29.7238 58.2548C44.7573 47.7475 52.7927 32.8555 53.83 13.5786C53.9647 10.8036 52.7456 8.90425 50.1726 7.88046Z" fill="#133D7A"/>
<path d="M20.9746 30.5925C19.7016 30.0671 18.9742 28.7537 19.1964 27.3999C20.2202 21.1629 23.0828 16.4683 27.7841 13.3161C28.3768 12.912 29.0167 12.7234 29.7037 12.7503C32.1689 12.8581 32.2699 13.6866 30.0068 15.2357C29.441 15.6196 29.0369 16.145 28.8551 16.731C27.7235 20.4489 27.0567 24.2612 26.8546 28.1677C26.693 31.3065 24.733 32.1147 20.9746 30.5925Z" fill="#B33EED" fill-opacity="0.996"/>
<path d="M43.2214 33.9264C40.9313 37.6039 39.49 37.7858 38.8972 34.472C38.7962 33.9264 39.1397 33.401 39.7055 33.199C41.2008 32.6601 42.137 31.6902 42.5142 30.2892C42.6556 29.7235 42.3727 29.0971 41.807 28.7536C39.3283 27.3122 36.6678 26.4703 33.8255 26.2278C31.8048 26.0527 30.4375 25.7496 29.7236 25.3185C27.7568 24.1465 27.8242 22.5435 29.9257 20.5094C30.3904 20.0649 31.0168 19.8022 31.6836 19.8224C34.4721 19.8897 36.9574 20.698 39.1397 22.2471C41.3624 23.8232 42.9116 25.2983 43.7872 26.6723C45.1208 28.7603 44.9322 31.1783 43.2214 33.9264Z" fill="#EE344E"/>
<path d="M27.0163 40.4933C24.9822 38.8229 22.7662 38.4592 20.3684 39.4021C19.8026 38.6343 18.3545 37.2468 16.0241 35.2396C11.4978 31.3331 11.2621 27.2716 15.3168 23.0552C15.7816 22.5703 16.408 22.3278 17.0344 22.4086C19.6612 22.705 18.9472 24.2003 14.8925 26.8944C13.8418 27.5814 13.862 29.1373 14.9127 29.8243C19.6275 32.8553 24.8475 34.1216 30.5726 33.6231C36.6076 33.0843 37.8806 34.8086 34.3916 38.7959C34.0077 39.2203 33.4217 39.5234 32.7145 39.6244L27.0163 40.4933Z" fill="#5460FF"/>
<path d="M27.016 40.4936C27.501 43.1878 28.9491 44.2385 31.3604 43.6458C31.9464 43.5043 32.4717 43.5447 32.7546 43.7468C33.2396 44.0836 32.9163 44.4608 31.7847 44.8784C26.3425 46.8721 22.537 45.0468 20.3682 39.4025C22.766 38.4595 24.9819 38.8232 27.016 40.4936Z" fill="#B33EED" fill-opacity="0.996"/>
</svg>
