<svg width="24" height="24" viewBox="0 0 24 25" fill="none" xmlns="http://www.w3.org/2000/svg">
<g clip-path="url(#clip0_60_713)">
<path d="M1.79578 0.327271H14.6747C14.9531 0.349146 15.2012 0.416489 15.4191 0.529302C15.9159 0.787114 16.2387 1.17633 16.3875 1.69696C16.4309 1.8479 16.4539 2.05446 16.4564 2.31665C16.4667 3.34133 16.4697 4.36602 16.4653 5.39071C16.4653 5.4154 16.4666 5.50868 16.4691 5.67055C16.4712 5.8118 16.465 5.90477 16.4503 5.94946C16.365 6.20633 16.2064 6.32946 15.9745 6.31883C15.8464 6.3129 15.7389 6.27086 15.652 6.19274C15.5533 6.10368 15.5039 5.98836 15.5039 5.8468C15.5039 4.6593 15.5039 3.4718 15.5039 2.2843C15.5039 1.90586 15.3609 1.62399 15.075 1.43868C14.9797 1.3768 14.8781 1.33571 14.7703 1.3154C14.6737 1.29727 14.5628 1.28821 14.4375 1.28821C10.3184 1.28821 6.19922 1.28821 2.07984 1.28821C1.85016 1.28821 1.67703 1.30977 1.56047 1.3529C1.30047 1.44946 1.12219 1.6279 1.02562 1.88821C0.9825 2.00446 0.960937 2.17743 0.960937 2.40711C0.960937 9.01993 0.960937 15.6329 0.960937 22.246C0.960937 22.477 0.9825 22.6506 1.02562 22.7668C1.12187 23.0268 1.30016 23.2051 1.56047 23.3016C1.67672 23.3448 1.85031 23.3663 2.08125 23.3663C6.18344 23.3663 10.2856 23.3663 14.3878 23.3663C14.6134 23.3663 14.7844 23.3449 14.9006 23.3021C15.1622 23.2056 15.3403 23.029 15.435 22.7724C15.4809 22.6484 15.5039 22.4477 15.5039 22.1706C15.5036 20.9674 15.5016 19.7645 15.4978 18.5616C15.4969 18.3532 15.578 18.2018 15.7411 18.1074C15.8589 18.0396 15.9798 18.0226 16.1039 18.0563C16.212 18.0857 16.2986 18.1443 16.3636 18.2321C16.4295 18.3212 16.4627 18.4271 16.463 18.5499C16.4642 19.8312 16.4634 21.1124 16.4606 22.3937C16.4591 22.9974 16.2408 23.4887 15.8058 23.8674C15.4883 24.1437 15.1055 24.297 14.6573 24.3273H1.80187C1.48594 24.3035 1.21047 24.2245 0.975469 24.0901C0.387031 23.7535 0.061875 23.234 0 22.5315V2.11743C0.0471875 1.54993 0.278594 1.09477 0.694219 0.751958C0.998594 0.501333 1.36578 0.359771 1.79578 0.327271Z" fill="black"/>
<path d="M23.9999 12.2246V12.4472C23.9574 12.5544 23.9174 12.6268 23.8799 12.6643C22.5868 13.9571 21.2938 15.25 20.001 16.5432C19.8598 16.6844 19.7804 16.761 19.7629 16.7729C19.6976 16.8175 19.6246 16.8457 19.544 16.8572C19.4677 16.8679 19.3926 16.8604 19.3185 16.8347C19.1644 16.781 19.0648 16.673 19.0194 16.5108C18.9704 16.3358 19.0135 16.1799 19.1488 16.043C20.2126 14.9658 21.2776 13.9004 22.3438 12.8466C22.3701 12.8207 22.3648 12.8077 22.3279 12.8077C17.3019 12.8077 12.2812 12.8077 7.26554 12.8077C7.15147 12.8077 7.05163 12.7758 6.966 12.7121C6.88382 12.6508 6.82554 12.5702 6.79116 12.4702C6.74647 12.3399 6.761 12.2111 6.83475 12.084C6.92382 11.9308 7.06741 11.8541 7.26554 11.8538C12.2774 11.8491 17.3048 11.8468 22.3476 11.8468C22.371 11.8468 22.3744 11.8385 22.3579 11.8219C21.3848 10.8557 20.4135 9.88645 19.4441 8.91426C19.3441 8.81395 19.2608 8.7277 19.1943 8.65551C19.0924 8.54614 19.0321 8.44551 19.0133 8.35364C18.9899 8.23989 19.0077 8.13317 19.0668 8.03348C19.1193 7.94567 19.1954 7.87833 19.2951 7.83145C19.4879 7.74051 19.6685 7.77911 19.8369 7.94723C21.1416 9.25192 22.4463 10.5566 23.751 11.8613C23.8819 11.9925 23.9649 12.1136 23.9999 12.2246Z" fill="black"/>
</g>
<defs>
<clipPath id="clip0_60_713">
<rect width="24" height="24" fill="white" transform="translate(0 0.327271)"/>
</clipPath>
</defs>
</svg>
