<svg width="39" height="43" viewBox="0 0 39 43" fill="none" xmlns="http://www.w3.org/2000/svg">
<path d="M18.4821 27.7061C17.0904 26.5632 15.5742 26.3144 13.9336 26.9595" stroke="#834FF6" stroke-width="2"/>
<path d="M18.9134 0C19.7244 0 20.5309 0 21.3328 0C26.1348 0.50693 30.8078 1.55766 35.3517 3.15219C37.4993 3.90797 38.7067 5.26286 38.974 7.21684C39.0477 7.76986 38.9648 9.41508 38.7251 12.1525C37.6467 24.1529 32.0751 34.0196 22.0102 41.7526C20.5263 42.9047 19.0055 42.9554 17.4479 41.9047C6.80233 34.7432 0.991068 23.5446 0.0140755 8.30905C-0.124178 6.19838 0.756042 4.67298 2.65473 3.73285C7.1618 1.50236 12.5813 0.258074 18.9134 0ZM34.3287 5.3919C23.7937 1.1982 13.4201 1.48853 3.20773 6.26289C2.82062 6.45645 2.57177 6.82973 2.55795 7.25832C2.08789 20.9915 7.37378 31.8537 18.4156 39.8447C18.9825 40.2595 19.7567 40.2595 20.3374 39.8586C30.6234 32.6694 36.1213 22.4801 36.831 9.29065C36.9232 7.39197 36.0891 6.09238 34.3287 5.3919Z" fill="#133D7A"/>
<path d="M14.3512 20.9317C13.4802 20.5722 12.9825 19.6736 13.1346 18.7473C13.8351 14.4799 15.7937 11.2678 19.0104 9.11101C19.4159 8.8345 19.8537 8.70546 20.3238 8.7239C22.0105 8.79763 22.0796 9.36447 20.5312 10.4244C20.144 10.6871 19.8675 11.0466 19.7431 11.4475C18.9689 13.9914 18.5126 16.5997 18.3744 19.2727C18.2638 21.4202 16.9227 21.9732 14.3512 20.9317Z" fill="#B33EED" fill-opacity="0.996"/>
<path d="M29.5725 23.2127C28.0056 25.729 27.0194 25.8534 26.6139 23.586C26.5448 23.2127 26.7798 22.8533 27.1669 22.715C28.19 22.3464 28.8305 21.6827 29.0886 20.7242C29.1854 20.3371 28.9918 19.9085 28.6047 19.6734C26.9088 18.6872 25.0885 18.1112 23.1437 17.9453C21.7612 17.8255 20.8257 17.6181 20.3372 17.3231C18.9915 16.5213 19.0376 15.4244 20.4754 14.0327C20.7934 13.7285 21.222 13.5488 21.6782 13.5626C23.5861 13.6087 25.2866 14.1617 26.7798 15.2217C28.3006 16.3001 29.3605 17.3093 29.9596 18.2494C30.8721 19.6781 30.7431 21.3325 29.5725 23.2127Z" fill="#EE344E"/>
<path d="M18.485 27.706C17.0932 26.5631 15.577 26.3142 13.9364 26.9594C13.5493 26.434 12.5585 25.4847 10.964 24.1114C7.86707 21.4385 7.70577 18.6596 10.4801 15.7747C10.798 15.4429 11.2266 15.277 11.6552 15.3323C13.4525 15.535 12.964 16.5581 10.1897 18.4015C9.47082 18.8716 9.48464 19.9361 10.2036 20.4062C13.4295 22.48 17.001 23.3464 20.9182 23.0053C25.0474 22.6367 25.9184 23.8164 23.5312 26.5446C23.2685 26.835 22.8676 27.0423 22.3837 27.1115L18.485 27.706Z" fill="#5460FF"/>
<path d="M18.4821 27.7061C18.814 29.5495 19.8048 30.2684 21.4546 29.8629C21.8555 29.7661 22.215 29.7937 22.4085 29.932C22.7404 30.1624 22.5192 30.4205 21.7449 30.7062C18.0213 32.0703 15.4175 30.8214 13.9336 26.9595C15.5742 26.3144 17.0904 26.5632 18.4821 27.7061Z" fill="#B33EED" fill-opacity="0.996"/>
</svg>
