<svg width="24" height="24" viewBox="0 0 40 40" fill="none" xmlns="http://www.w3.org/2000/svg">
<g clip-path="url(#clip0_10_138)">
<path d="M4.9495 0H26.0828C28.2873 1.60889 30.2544 3.46578 31.9842 5.57067C32.0002 5.59022 32.1388 5.74844 32.4002 6.04533C32.7877 6.48444 32.9824 6.89689 32.9842 7.28267C33.0144 15.4107 32.9975 23.5173 32.9335 31.6027C32.9318 31.8147 32.8563 32.0193 32.7202 32.1813C32.5033 32.4356 32.3335 32.4578 32.2108 32.248C32.1593 32.1609 32.1326 32.0347 32.1308 31.8693C32.0544 24.0933 31.9895 16.3173 31.9362 8.54133C31.9344 8.25333 31.8953 8.03378 31.8188 7.88267C31.7068 7.65867 31.5406 7.49422 31.3202 7.38933C31.1193 7.29333 30.8171 7.29422 30.4135 7.392C29.1353 7.70311 27.8686 7.63289 26.6135 7.18133C26.1833 7.02667 25.9513 6.72356 25.9175 6.272L25.6055 2.05867C25.5753 1.66756 25.3664 1.47111 24.9788 1.46933L6.3975 1.4C5.91573 1.39822 5.67306 1.63911 5.6695 2.12267C5.59128 13.1538 5.54595 24.072 5.5335 34.8773C5.5335 35.1956 5.58062 35.4444 5.67484 35.624C5.80462 35.8729 5.98684 36.0658 6.2215 36.2027C6.4455 36.3342 6.79928 36.3991 7.28284 36.3973C14.8171 36.36 22.3513 36.3387 29.8855 36.3333C29.9051 36.3333 30.0695 36.344 30.3788 36.3653C30.9815 36.408 31.3948 36.1351 31.6188 35.5467C31.7291 35.2551 31.8686 34.9787 32.0375 34.7173C32.2224 34.4329 32.4126 34.3618 32.6082 34.504C32.7166 34.5822 32.8002 34.72 32.8588 34.9173C32.9726 35.296 33.0375 35.6818 33.0535 36.0747C33.0713 36.4676 32.9628 36.7671 32.7282 36.9733C32.4544 37.2133 32.1157 37.3236 31.7122 37.304C31.3211 37.2862 31.1139 37.2773 31.0908 37.2773C23.7379 37.5493 16.3833 37.5982 9.02684 37.424C8.70861 37.4169 8.49528 37.4693 8.38684 37.5813C8.2215 37.7538 8.2135 38.0267 8.36284 38.4C8.50684 38.7556 8.76995 38.9333 9.15217 38.9333C17.0455 38.9582 24.9868 38.9804 32.9762 39C33.2748 39 33.5059 38.9618 33.6695 38.8853C33.9042 38.7733 34.0864 38.6107 34.2162 38.3973C34.3388 38.1964 34.4011 37.8738 34.4028 37.4293C34.4615 26.6382 34.4988 15.8471 34.5148 5.056C34.5166 4.672 34.4615 4.38933 34.3495 4.208C34.1699 3.91289 33.8935 3.75644 33.5202 3.73867C33.2268 3.72444 32.9371 3.68089 32.6508 3.608C32.2259 3.50133 32.0544 3.32178 32.1362 3.06933C32.1913 2.90044 32.3255 2.768 32.5388 2.672C32.8482 2.53333 33.2464 2.46489 33.7335 2.46667C34.3913 2.47022 34.8802 2.65956 35.2002 3.03467C35.4206 3.29067 35.5335 3.74133 35.5388 4.38667C35.5531 6.03467 35.5957 9.46133 35.6668 14.6667C35.7717 22.3609 35.5664 30.8053 35.0508 40H7.85084C7.17173 39.6267 6.83661 39.0551 6.8455 38.2853C6.84554 38.1887 6.82114 38.1023 6.77617 38.04C6.54328 37.7271 6.19573 37.536 5.7335 37.4667C5.12195 37.3742 4.70862 37.0862 4.4935 36.6027C4.38328 36.352 4.35395 35.9004 4.4055 35.248C4.45528 34.6276 4.47573 33.9004 4.46684 33.0667C4.34595 22.6436 4.50684 11.6213 4.9495 0ZM27.9415 2.952C27.5682 2.62311 27.3219 2.70133 27.2028 3.18667C27.0855 3.672 27.0428 4.15733 27.0748 4.64267C27.1015 5.04267 27.1948 5.352 27.3548 5.57067C27.5646 5.85511 27.8668 6.02933 28.2615 6.09333C28.9157 6.20356 29.5628 6.17244 30.2028 6C30.241 5.98967 30.276 5.97029 30.3051 5.9435C30.3341 5.91671 30.3562 5.88331 30.3696 5.84613C30.3829 5.80895 30.3871 5.7691 30.3818 5.72996C30.3764 5.69083 30.3617 5.65356 30.3388 5.62133C29.5993 4.59911 28.8002 3.70933 27.9415 2.952Z" fill="black"/>
<path d="M18.672 11.2613C18.672 12.5669 18.1534 13.819 17.2302 14.7421C16.307 15.6653 15.0549 16.184 13.7493 16.184C12.4438 16.184 11.1917 15.6653 10.2685 14.7421C9.3453 13.819 8.82666 12.5669 8.82666 11.2613C8.82666 9.95572 9.3453 8.70362 10.2685 7.78044C11.1917 6.85726 12.4438 6.33862 13.7493 6.33862C15.0549 6.33862 16.307 6.85726 17.2302 7.78044C18.1534 8.70362 18.672 9.95572 18.672 11.2613ZM15.056 7.81862C14.208 7.48973 13.3227 7.50573 12.4 7.86662C10.8195 8.48529 10.0747 9.6444 10.1653 11.344C10.1671 11.36 10.1662 11.6195 10.1627 12.1226C10.1609 12.6204 10.3564 12.9742 10.7493 13.184C11.7627 13.7208 12.6195 13.5155 13.32 12.568C13.3395 12.5414 13.3536 12.5113 13.3614 12.4793C13.3691 12.4473 13.3705 12.4141 13.3652 12.3815C13.36 12.349 13.3484 12.3179 13.331 12.2899C13.3136 12.2619 13.2908 12.2377 13.264 12.2186C12.8444 11.9164 12.488 11.5768 12.1947 11.2C11.8693 10.7857 11.8009 10.4008 11.9893 10.0453C12.1209 9.79462 12.3858 9.58662 12.784 9.42129C13.1431 9.27196 13.5333 9.16529 13.9547 9.10129C14.3867 9.03373 14.7395 9.17062 15.0133 9.51196C15.8275 10.5271 15.6844 11.4097 14.584 12.16C14.5325 12.1953 14.4893 12.2413 14.4573 12.295C14.4253 12.3486 14.4053 12.4085 14.3987 12.4706C14.3921 12.5327 14.3991 12.5955 14.4191 12.6547C14.4391 12.7138 14.4717 12.7679 14.5147 12.8133C14.9307 13.2524 15.4729 13.496 16.1413 13.544C16.6178 13.5777 16.9431 13.3724 17.1173 12.928C17.6293 11.632 17.5733 10.4657 16.9493 9.42929C16.4907 8.66662 15.8595 8.12973 15.056 7.81862ZM13.4293 10.1813C13.2462 10.4497 13.2551 10.7111 13.456 10.9653C13.7333 11.3208 13.9698 11.2453 14.1653 10.7386C14.2036 10.6389 14.219 10.5317 14.2102 10.4251C14.2014 10.3185 14.1688 10.2151 14.1147 10.1226C13.9173 9.78485 13.6889 9.8044 13.4293 10.1813ZM12.92 15.016C13.3058 15.112 13.6835 15.1146 14.0533 15.024C14.3164 14.9582 14.4995 14.8328 14.6027 14.648C14.7431 14.3973 14.7102 14.1422 14.504 13.8826C14.4508 13.8173 14.3729 13.7736 14.2853 13.76C13.608 13.6675 13.0844 13.9208 12.7147 14.52C12.6872 14.5643 12.6707 14.6145 12.6666 14.6665C12.6624 14.7185 12.6707 14.7708 12.6907 14.8192C12.7107 14.8676 12.7419 14.9106 12.7818 14.9448C12.8216 14.979 12.869 15.0034 12.92 15.016Z" fill="black"/>
<path d="M28.2491 9.39136L21.1617 9.47796C20.9378 9.48069 20.7586 9.66437 20.7613 9.88821L20.7644 10.1442C20.7672 10.368 20.9508 10.5473 21.1747 10.5445L28.2622 10.458C28.486 10.4552 28.6652 10.2715 28.6625 10.0477L28.6594 9.79172C28.6566 9.56787 28.473 9.38863 28.2491 9.39136Z" fill="black"/>
<path d="M26.8826 12.5308H21.336C21.0134 12.5308 20.752 12.7922 20.752 13.1148V13.1468C20.752 13.4693 21.0134 13.7308 21.336 13.7308H26.8826C27.2052 13.7308 27.4666 13.4693 27.4666 13.1468V13.1148C27.4666 12.7922 27.2052 12.5308 26.8826 12.5308Z" fill="black"/>
<path d="M28.2904 18.2666H9.23444C9.02972 18.2666 8.86377 18.4326 8.86377 18.6373V18.9626C8.86377 19.1673 9.02972 19.3333 9.23444 19.3333H28.2904C28.4951 19.3333 28.6611 19.1673 28.6611 18.9626V18.6373C28.6611 18.4326 28.4951 18.2666 28.2904 18.2666Z" fill="black"/>
<path d="M25.706 21.2953L9.3328 21.2381C9.05003 21.2371 8.82 21.4656 8.81901 21.7483L8.81827 21.9617C8.81728 22.2444 9.04571 22.4745 9.32848 22.4754L25.7017 22.5326C25.9845 22.5336 26.2145 22.3052 26.2155 22.0224L26.2162 21.8091C26.2172 21.5263 25.9888 21.2963 25.706 21.2953Z" fill="black"/>
<path d="M21.3226 24.4692H9.22662C9.02191 24.4692 8.85596 24.6352 8.85596 24.8399V25.0959C8.85596 25.3006 9.02191 25.4666 9.22662 25.4666H21.3226C21.5273 25.4666 21.6933 25.3006 21.6933 25.0959V24.8399C21.6933 24.6352 21.5273 24.4692 21.3226 24.4692Z" fill="black"/>
<path d="M25.5935 27.5138L9.2575 27.5423C9.04247 27.5427 8.86847 27.7173 8.86884 27.9323L8.86959 28.359C8.86996 28.574 9.04458 28.748 9.2596 28.7476L25.5956 28.7191C25.8106 28.7187 25.9846 28.5441 25.9842 28.3291L25.9835 27.9024C25.9831 27.6874 25.8085 27.5134 25.5935 27.5138Z" fill="black"/>
</g>
<defs>
<clipPath id="clip0_10_138">
<rect width="40" height="40" fill="white"/>
</clipPath>
</defs>
</svg>
